<?xml version="1.0" standalone="no"?>
<!DOCTYPE svg PUBLIC "-//W3C//DTD SVG 20010904//EN"
 "http://www.w3.org/TR/2001/REC-SVG-20010904/DTD/svg10.dtd">
<svg version="1.0" xmlns="http://www.w3.org/2000/svg"
 width="1600.000000pt" height="1600.000000pt" viewBox="0 0 1600.000000 1600.000000"
 preserveAspectRatio="xMidYMid meet">

<g transform="translate(0.000000,1600.000000) scale(0.100000,-0.100000)"
fill="#000000" stroke="none">
<path d="M7790 14664 c-1121 -45 -2140 -332 -3085 -872 -1038 -592 -1905
-1460 -2497 -2497 -498 -873 -781 -1805 -859 -2835 -15 -200 -15 -720 0 -920
70 -922 296 -1738 702 -2540 646 -1277 1672 -2303 2949 -2949 802 -406 1618
-632 2540 -702 200 -15 720 -15 920 0 923 70 1736 295 2540 702 1140 577 2083
1460 2741 2567 950 1598 1181 3544 632 5336 -112 369 -238 677 -424 1046 -440
871 -1052 1620 -1824 2231 -1047 830 -2321 1325 -3650 1418 -159 11 -558 20
-685 15z m760 -1358 c665 -76 1213 -232 1770 -502 563 -274 998 -583 1441
-1024 295 -294 488 -530 702 -857 689 -1052 979 -2295 831 -3563 -106 -915
-467 -1819 -1018 -2553 -298 -396 -688 -787 -1081 -1081 -654 -491 -1435 -830
-2245 -975 -546 -98 -1176 -107 -1745 -25 -740 106 -1488 391 -2128 810 -327
215 -563 408 -857 703 -284 286 -473 517 -683 837 -429 655 -711 1402 -816
2164 -40 291 -46 389 -46 760 0 371 6 469 46 760 105 762 387 1509 816 2164
213 325 400 554 693 846 292 293 521 480 846 693 732 479 1579 774 2434 847
69 5 141 12 160 14 90 10 753 -4 880 -18z"/>
<path d="M7479 10643 c-6 -16 -451 -1209 -989 -2653 -538 -1444 -982 -2633
-985 -2642 -7 -17 25 -18 578 -18 l586 0 182 550 183 550 964 -2 965 -3 185
-547 185 -548 584 0 c553 0 585 1 578 18 -3 9 -295 787 -647 1727 -352 941
-799 2133 -993 2650 l-352 940 -507 3 -506 2 -11 -27z m851 -2322 c181 -541
330 -988 330 -992 0 -5 -300 -9 -666 -9 -529 0 -665 3 -662 13 3 6 152 454
333 995 180 541 329 982 331 980 2 -2 152 -447 334 -987z"/>
</g>
</svg>
